<svg xmlns="http://www.w3.org/2000/svg" viewBox="0 0 1040 1000" width="1040" height="1000" role="img" aria-label="TDK contributor journey map: 184 of 325 quests done across 11 islands">
  <defs><linearGradient id="sea" x1="0" y1="0" x2="0" y2="1"><stop offset="0" stop-color="#bfe6ff"/><stop offset="1" stop-color="#6bb7e8"/></linearGradient></defs>
  <rect width="1040" height="1000" rx="18" fill="url(#sea)"/>
  <text x="520" y="52" font-size="36" font-weight="800" text-anchor="middle" fill="#12304a">🗺️ The TDK Journey</text>
  <text x="520" y="84" font-size="19" text-anchor="middle" fill="#12304a">Filled dot = merged, hollow dot = open · 184/325 quests done</text>
  <path d="M150,180 L397,190 L644,190 L891,190 C1036,220 1036,370 891,400 L644,400 L397,400 L150,400 C5,430 5,580 150,610 L397,610 L644,610 L891,610" fill="none" stroke="#fff" stroke-width="4" stroke-dasharray="4 11" stroke-linecap="round"/>
  <text x="150" y="186" font-size="46" text-anchor="middle">🚩</text>
  <text x="150" y="224" font-size="20" font-weight="700" text-anchor="middle" fill="#12304a">Start here</text>
  
  <g>
    <ellipse cx="397" cy="197" rx="96" ry="54" fill="#000" opacity=".10"/>
    <ellipse cx="397" cy="190" rx="94" ry="52" fill="#f4e3b0" stroke="#1d76db" stroke-width="3"/>
    <ellipse cx="397" cy="184" rx="66" ry="32" fill="#9bd68a" opacity=".85"/>
    <text x="397" y="204" font-size="46" text-anchor="middle">🏝️</text>
    <text x="397" y="272" font-size="21" font-weight="700" text-anchor="middle" fill="#12304a">CLI Cove</text>
    <circle cx="315" cy="286" r="6" fill="#1d76db" stroke="#f4e3b0" stroke-width="1"/><circle cx="330" cy="286" r="6" fill="#1d76db" stroke="#f4e3b0" stroke-width="1"/><circle cx="345" cy="286" r="6" fill="#1d76db" stroke="#f4e3b0" stroke-width="1"/><circle cx="360" cy="286" r="6" fill="#1d76db" stroke="#f4e3b0" stroke-width="1"/><circle cx="375" cy="286" r="6" fill="#1d76db" stroke="#f4e3b0" stroke-width="1"/><circle cx="390" cy="286" r="6" fill="#1d76db" stroke="#f4e3b0" stroke-width="1"/><circle cx="405" cy="286" r="6" fill="#1d76db" stroke="#f4e3b0" stroke-width="1"/><circle cx="420" cy="286" r="6" fill="#1d76db" stroke="#f4e3b0" stroke-width="1"/><circle cx="435" cy="286" r="6" fill="#1d76db" stroke="#f4e3b0" stroke-width="1"/><circle cx="450" cy="286" r="6" fill="#1d76db" stroke="#f4e3b0" stroke-width="1"/><circle cx="465" cy="286" r="6" fill="#1d76db" stroke="#f4e3b0" stroke-width="1"/><circle cx="480" cy="286" r="6" fill="#1d76db" stroke="#f4e3b0" stroke-width="1"/><circle cx="315" cy="301" r="6" fill="#1d76db" stroke="#f4e3b0" stroke-width="1"/><circle cx="330" cy="301" r="6" fill="#1d76db" stroke="#f4e3b0" stroke-width="1"/><circle cx="345" cy="301" r="6" fill="#1d76db" stroke="#f4e3b0" stroke-width="1"/><circle cx="360" cy="301" r="6" fill="#1d76db" stroke="#f4e3b0" stroke-width="1"/><circle cx="375" cy="301" r="6" fill="#1d76db" stroke="#f4e3b0" stroke-width="1"/><circle cx="390" cy="301" r="5.5" fill="none" stroke="#1d76db" stroke-width="2"/><circle cx="405" cy="301" r="5.5" fill="none" stroke="#1d76db" stroke-width="2"/><circle cx="420" cy="301" r="5.5" fill="none" stroke="#1d76db" stroke-width="2"/><circle cx="435" cy="301" r="5.5" fill="none" stroke="#1d76db" stroke-width="2"/><circle cx="450" cy="301" r="5.5" fill="none" stroke="#1d76db" stroke-width="2"/><circle cx="465" cy="301" r="5.5" fill="none" stroke="#1d76db" stroke-width="2"/><circle cx="480" cy="301" r="5.5" fill="none" stroke="#1d76db" stroke-width="2"/>
    <text x="397" y="326" font-size="16" text-anchor="middle" fill="#12304a">41/58 done · 1 dot ≈ 3</text>
  </g>
  <g>
    <ellipse cx="644" cy="197" rx="96" ry="54" fill="#000" opacity=".10"/>
    <ellipse cx="644" cy="190" rx="94" ry="52" fill="#f4e3b0" stroke="#0075ca" stroke-width="3"/>
    <ellipse cx="644" cy="184" rx="66" ry="32" fill="#9bd68a" opacity=".85"/>
    <text x="644" y="204" font-size="46" text-anchor="middle">⚓</text>
    <text x="644" y="272" font-size="21" font-weight="700" text-anchor="middle" fill="#12304a">Docs Harbor</text>
    <circle cx="562" cy="286" r="6" fill="#0075ca" stroke="#f4e3b0" stroke-width="1"/><circle cx="577" cy="286" r="6" fill="#0075ca" stroke="#f4e3b0" stroke-width="1"/><circle cx="592" cy="286" r="6" fill="#0075ca" stroke="#f4e3b0" stroke-width="1"/><circle cx="607" cy="286" r="6" fill="#0075ca" stroke="#f4e3b0" stroke-width="1"/><circle cx="622" cy="286" r="6" fill="#0075ca" stroke="#f4e3b0" stroke-width="1"/><circle cx="637" cy="286" r="6" fill="#0075ca" stroke="#f4e3b0" stroke-width="1"/><circle cx="652" cy="286" r="6" fill="#0075ca" stroke="#f4e3b0" stroke-width="1"/><circle cx="667" cy="286" r="6" fill="#0075ca" stroke="#f4e3b0" stroke-width="1"/><circle cx="682" cy="286" r="6" fill="#0075ca" stroke="#f4e3b0" stroke-width="1"/><circle cx="697" cy="286" r="6" fill="#0075ca" stroke="#f4e3b0" stroke-width="1"/><circle cx="712" cy="286" r="5.5" fill="none" stroke="#0075ca" stroke-width="2"/><circle cx="727" cy="286" r="5.5" fill="none" stroke="#0075ca" stroke-width="2"/><circle cx="562" cy="301" r="5.5" fill="none" stroke="#0075ca" stroke-width="2"/><circle cx="577" cy="301" r="5.5" fill="none" stroke="#0075ca" stroke-width="2"/><circle cx="592" cy="301" r="5.5" fill="none" stroke="#0075ca" stroke-width="2"/><circle cx="607" cy="301" r="5.5" fill="none" stroke="#0075ca" stroke-width="2"/><circle cx="622" cy="301" r="5.5" fill="none" stroke="#0075ca" stroke-width="2"/><circle cx="637" cy="301" r="5.5" fill="none" stroke="#0075ca" stroke-width="2"/><circle cx="652" cy="301" r="5.5" fill="none" stroke="#0075ca" stroke-width="2"/><circle cx="667" cy="301" r="5.5" fill="none" stroke="#0075ca" stroke-width="2"/><circle cx="682" cy="301" r="5.5" fill="none" stroke="#0075ca" stroke-width="2"/><circle cx="697" cy="301" r="5.5" fill="none" stroke="#0075ca" stroke-width="2"/><circle cx="712" cy="301" r="5.5" fill="none" stroke="#0075ca" stroke-width="2"/><circle cx="727" cy="301" r="5.5" fill="none" stroke="#0075ca" stroke-width="2"/>
    <text x="644" y="326" font-size="16" text-anchor="middle" fill="#12304a">18/42 done · 1 dot ≈ 2</text>
  </g>
  <g>
    <ellipse cx="891" cy="197" rx="96" ry="54" fill="#000" opacity=".10"/>
    <ellipse cx="891" cy="190" rx="94" ry="52" fill="#f4e3b0" stroke="#8a63d2" stroke-width="3"/>
    <ellipse cx="891" cy="184" rx="66" ry="32" fill="#9bd68a" opacity=".85"/>
    <text x="891" y="204" font-size="46" text-anchor="middle">🌊</text>
    <text x="891" y="272" font-size="21" font-weight="700" text-anchor="middle" fill="#12304a">UI Lagoon</text>
    <circle cx="809" cy="286" r="6" fill="#8a63d2" stroke="#f4e3b0" stroke-width="1"/><circle cx="824" cy="286" r="6" fill="#8a63d2" stroke="#f4e3b0" stroke-width="1"/><circle cx="839" cy="286" r="6" fill="#8a63d2" stroke="#f4e3b0" stroke-width="1"/><circle cx="854" cy="286" r="6" fill="#8a63d2" stroke="#f4e3b0" stroke-width="1"/><circle cx="869" cy="286" r="6" fill="#8a63d2" stroke="#f4e3b0" stroke-width="1"/><circle cx="884" cy="286" r="6" fill="#8a63d2" stroke="#f4e3b0" stroke-width="1"/><circle cx="899" cy="286" r="6" fill="#8a63d2" stroke="#f4e3b0" stroke-width="1"/><circle cx="914" cy="286" r="6" fill="#8a63d2" stroke="#f4e3b0" stroke-width="1"/><circle cx="929" cy="286" r="6" fill="#8a63d2" stroke="#f4e3b0" stroke-width="1"/><circle cx="944" cy="286" r="6" fill="#8a63d2" stroke="#f4e3b0" stroke-width="1"/><circle cx="959" cy="286" r="6" fill="#8a63d2" stroke="#f4e3b0" stroke-width="1"/><circle cx="974" cy="286" r="6" fill="#8a63d2" stroke="#f4e3b0" stroke-width="1"/><circle cx="809" cy="301" r="6" fill="#8a63d2" stroke="#f4e3b0" stroke-width="1"/><circle cx="824" cy="301" r="6" fill="#8a63d2" stroke="#f4e3b0" stroke-width="1"/><circle cx="839" cy="301" r="5.5" fill="none" stroke="#8a63d2" stroke-width="2"/><circle cx="854" cy="301" r="5.5" fill="none" stroke="#8a63d2" stroke-width="2"/><circle cx="869" cy="301" r="5.5" fill="none" stroke="#8a63d2" stroke-width="2"/><circle cx="884" cy="301" r="5.5" fill="none" stroke="#8a63d2" stroke-width="2"/><circle cx="899" cy="301" r="5.5" fill="none" stroke="#8a63d2" stroke-width="2"/><circle cx="914" cy="301" r="5.5" fill="none" stroke="#8a63d2" stroke-width="2"/><circle cx="929" cy="301" r="5.5" fill="none" stroke="#8a63d2" stroke-width="2"/><circle cx="944" cy="301" r="5.5" fill="none" stroke="#8a63d2" stroke-width="2"/><circle cx="959" cy="301" r="5.5" fill="none" stroke="#8a63d2" stroke-width="2"/><circle cx="974" cy="301" r="5.5" fill="none" stroke="#8a63d2" stroke-width="2"/>
    <text x="891" y="326" font-size="16" text-anchor="middle" fill="#12304a">17/30 done · 1 dot ≈ 2</text>
  </g>
  <g>
    <ellipse cx="891" cy="407" rx="96" ry="54" fill="#000" opacity=".10"/>
    <ellipse cx="891" cy="400" rx="94" ry="52" fill="#f4e3b0" stroke="#0e8a16" stroke-width="3"/>
    <ellipse cx="891" cy="394" rx="66" ry="32" fill="#9bd68a" opacity=".85"/>
    <text x="891" y="414" font-size="46" text-anchor="middle">🪸</text>
    <text x="891" y="482" font-size="21" font-weight="700" text-anchor="middle" fill="#12304a">Doctor Reef</text>
    <circle cx="809" cy="496" r="6" fill="#0e8a16" stroke="#f4e3b0" stroke-width="1"/><circle cx="824" cy="496" r="6" fill="#0e8a16" stroke="#f4e3b0" stroke-width="1"/><circle cx="839" cy="496" r="6" fill="#0e8a16" stroke="#f4e3b0" stroke-width="1"/><circle cx="854" cy="496" r="6" fill="#0e8a16" stroke="#f4e3b0" stroke-width="1"/><circle cx="869" cy="496" r="6" fill="#0e8a16" stroke="#f4e3b0" stroke-width="1"/><circle cx="884" cy="496" r="5.5" fill="none" stroke="#0e8a16" stroke-width="2"/><circle cx="899" cy="496" r="5.5" fill="none" stroke="#0e8a16" stroke-width="2"/><circle cx="914" cy="496" r="5.5" fill="none" stroke="#0e8a16" stroke-width="2"/>
    <text x="891" y="536" font-size="16" text-anchor="middle" fill="#12304a">5/8 done</text>
  </g>
  <g>
    <ellipse cx="644" cy="407" rx="96" ry="54" fill="#000" opacity=".10"/>
    <ellipse cx="644" cy="400" rx="94" ry="52" fill="#f4e3b0" stroke="#d4a72c" stroke-width="3"/>
    <ellipse cx="644" cy="394" rx="66" ry="32" fill="#9bd68a" opacity=".85"/>
    <text x="644" y="414" font-size="46" text-anchor="middle">🧪</text>
    <text x="644" y="482" font-size="21" font-weight="700" text-anchor="middle" fill="#12304a">Test Atoll</text>
    <circle cx="562" cy="496" r="6" fill="#d4a72c" stroke="#f4e3b0" stroke-width="1"/><circle cx="577" cy="496" r="6" fill="#d4a72c" stroke="#f4e3b0" stroke-width="1"/><circle cx="592" cy="496" r="6" fill="#d4a72c" stroke="#f4e3b0" stroke-width="1"/><circle cx="607" cy="496" r="6" fill="#d4a72c" stroke="#f4e3b0" stroke-width="1"/><circle cx="622" cy="496" r="6" fill="#d4a72c" stroke="#f4e3b0" stroke-width="1"/><circle cx="637" cy="496" r="6" fill="#d4a72c" stroke="#f4e3b0" stroke-width="1"/><circle cx="652" cy="496" r="6" fill="#d4a72c" stroke="#f4e3b0" stroke-width="1"/><circle cx="667" cy="496" r="6" fill="#d4a72c" stroke="#f4e3b0" stroke-width="1"/><circle cx="682" cy="496" r="6" fill="#d4a72c" stroke="#f4e3b0" stroke-width="1"/><circle cx="697" cy="496" r="6" fill="#d4a72c" stroke="#f4e3b0" stroke-width="1"/><circle cx="712" cy="496" r="5.5" fill="none" stroke="#d4a72c" stroke-width="2"/><circle cx="727" cy="496" r="5.5" fill="none" stroke="#d4a72c" stroke-width="2"/><circle cx="562" cy="511" r="5.5" fill="none" stroke="#d4a72c" stroke-width="2"/>
    <text x="644" y="536" font-size="16" text-anchor="middle" fill="#12304a">10/13 done</text>
  </g>
  <g>
    <ellipse cx="397" cy="407" rx="96" ry="54" fill="#000" opacity=".10"/>
    <ellipse cx="397" cy="400" rx="94" ry="52" fill="#f4e3b0" stroke="#2496ed" stroke-width="3"/>
    <ellipse cx="397" cy="394" rx="66" ry="32" fill="#9bd68a" opacity=".85"/>
    <text x="397" y="414" font-size="46" text-anchor="middle">🚢</text>
    <text x="397" y="482" font-size="21" font-weight="700" text-anchor="middle" fill="#12304a">Launch Port</text>
    <circle cx="315" cy="496" r="6" fill="#2496ed" stroke="#f4e3b0" stroke-width="1"/><circle cx="330" cy="496" r="6" fill="#2496ed" stroke="#f4e3b0" stroke-width="1"/><circle cx="345" cy="496" r="6" fill="#2496ed" stroke="#f4e3b0" stroke-width="1"/><circle cx="360" cy="496" r="6" fill="#2496ed" stroke="#f4e3b0" stroke-width="1"/><circle cx="375" cy="496" r="6" fill="#2496ed" stroke="#f4e3b0" stroke-width="1"/><circle cx="390" cy="496" r="5.5" fill="none" stroke="#2496ed" stroke-width="2"/><circle cx="405" cy="496" r="5.5" fill="none" stroke="#2496ed" stroke-width="2"/><circle cx="420" cy="496" r="5.5" fill="none" stroke="#2496ed" stroke-width="2"/><circle cx="435" cy="496" r="5.5" fill="none" stroke="#2496ed" stroke-width="2"/><circle cx="450" cy="496" r="5.5" fill="none" stroke="#2496ed" stroke-width="2"/><circle cx="465" cy="496" r="5.5" fill="none" stroke="#2496ed" stroke-width="2"/><circle cx="480" cy="496" r="5.5" fill="none" stroke="#2496ed" stroke-width="2"/><circle cx="315" cy="511" r="5.5" fill="none" stroke="#2496ed" stroke-width="2"/>
    <text x="397" y="536" font-size="16" text-anchor="middle" fill="#12304a">5/13 done</text>
  </g>
  <g>
    <ellipse cx="150" cy="407" rx="96" ry="54" fill="#000" opacity=".10"/>
    <ellipse cx="150" cy="400" rx="94" ry="52" fill="#f4e3b0" stroke="#c9a100" stroke-width="3"/>
    <ellipse cx="150" cy="394" rx="66" ry="32" fill="#9bd68a" opacity=".85"/>
    <text x="150" y="414" font-size="46" text-anchor="middle">🌱</text>
    <text x="150" y="482" font-size="21" font-weight="700" text-anchor="middle" fill="#12304a">Growth Bay</text>
    <circle cx="68" cy="496" r="6" fill="#c9a100" stroke="#f4e3b0" stroke-width="1"/><circle cx="83" cy="496" r="6" fill="#c9a100" stroke="#f4e3b0" stroke-width="1"/><circle cx="98" cy="496" r="6" fill="#c9a100" stroke="#f4e3b0" stroke-width="1"/><circle cx="113" cy="496" r="6" fill="#c9a100" stroke="#f4e3b0" stroke-width="1"/><circle cx="128" cy="496" r="5.5" fill="none" stroke="#c9a100" stroke-width="2"/><circle cx="143" cy="496" r="5.5" fill="none" stroke="#c9a100" stroke-width="2"/><circle cx="158" cy="496" r="5.5" fill="none" stroke="#c9a100" stroke-width="2"/><circle cx="173" cy="496" r="5.5" fill="none" stroke="#c9a100" stroke-width="2"/><circle cx="188" cy="496" r="5.5" fill="none" stroke="#c9a100" stroke-width="2"/><circle cx="203" cy="496" r="5.5" fill="none" stroke="#c9a100" stroke-width="2"/><circle cx="218" cy="496" r="5.5" fill="none" stroke="#c9a100" stroke-width="2"/><circle cx="233" cy="496" r="5.5" fill="none" stroke="#c9a100" stroke-width="2"/><circle cx="68" cy="511" r="5.5" fill="none" stroke="#c9a100" stroke-width="2"/><circle cx="83" cy="511" r="5.5" fill="none" stroke="#c9a100" stroke-width="2"/><circle cx="98" cy="511" r="5.5" fill="none" stroke="#c9a100" stroke-width="2"/><circle cx="113" cy="511" r="5.5" fill="none" stroke="#c9a100" stroke-width="2"/><circle cx="128" cy="511" r="5.5" fill="none" stroke="#c9a100" stroke-width="2"/><circle cx="143" cy="511" r="5.5" fill="none" stroke="#c9a100" stroke-width="2"/><circle cx="158" cy="511" r="5.5" fill="none" stroke="#c9a100" stroke-width="2"/><circle cx="173" cy="511" r="5.5" fill="none" stroke="#c9a100" stroke-width="2"/><circle cx="188" cy="511" r="5.5" fill="none" stroke="#c9a100" stroke-width="2"/><circle cx="203" cy="511" r="5.5" fill="none" stroke="#c9a100" stroke-width="2"/><circle cx="218" cy="511" r="5.5" fill="none" stroke="#c9a100" stroke-width="2"/><circle cx="233" cy="511" r="5.5" fill="none" stroke="#c9a100" stroke-width="2"/>
    <text x="150" y="536" font-size="16" text-anchor="middle" fill="#12304a">10/56 done · 1 dot ≈ 3</text>
  </g>
  <g>
    <ellipse cx="150" cy="617" rx="96" ry="54" fill="#000" opacity=".10"/>
    <ellipse cx="150" cy="610" rx="94" ry="52" fill="#f4e3b0" stroke="#5319e7" stroke-width="3"/>
    <ellipse cx="150" cy="604" rx="66" ry="32" fill="#9bd68a" opacity=".85"/>
    <text x="150" y="624" font-size="46" text-anchor="middle">🧩</text>
    <text x="150" y="692" font-size="21" font-weight="700" text-anchor="middle" fill="#12304a">Recipe Archipelago</text>
    <circle cx="68" cy="706" r="6" fill="#5319e7" stroke="#f4e3b0" stroke-width="1"/><circle cx="83" cy="706" r="6" fill="#5319e7" stroke="#f4e3b0" stroke-width="1"/><circle cx="98" cy="706" r="6" fill="#5319e7" stroke="#f4e3b0" stroke-width="1"/><circle cx="113" cy="706" r="6" fill="#5319e7" stroke="#f4e3b0" stroke-width="1"/><circle cx="128" cy="706" r="6" fill="#5319e7" stroke="#f4e3b0" stroke-width="1"/><circle cx="143" cy="706" r="6" fill="#5319e7" stroke="#f4e3b0" stroke-width="1"/><circle cx="158" cy="706" r="6" fill="#5319e7" stroke="#f4e3b0" stroke-width="1"/><circle cx="173" cy="706" r="6" fill="#5319e7" stroke="#f4e3b0" stroke-width="1"/><circle cx="188" cy="706" r="6" fill="#5319e7" stroke="#f4e3b0" stroke-width="1"/><circle cx="203" cy="706" r="6" fill="#5319e7" stroke="#f4e3b0" stroke-width="1"/><circle cx="218" cy="706" r="6" fill="#5319e7" stroke="#f4e3b0" stroke-width="1"/><circle cx="233" cy="706" r="6" fill="#5319e7" stroke="#f4e3b0" stroke-width="1"/><circle cx="68" cy="721" r="6" fill="#5319e7" stroke="#f4e3b0" stroke-width="1"/><circle cx="83" cy="721" r="6" fill="#5319e7" stroke="#f4e3b0" stroke-width="1"/><circle cx="98" cy="721" r="6" fill="#5319e7" stroke="#f4e3b0" stroke-width="1"/><circle cx="113" cy="721" r="6" fill="#5319e7" stroke="#f4e3b0" stroke-width="1"/><circle cx="128" cy="721" r="6" fill="#5319e7" stroke="#f4e3b0" stroke-width="1"/><circle cx="143" cy="721" r="6" fill="#5319e7" stroke="#f4e3b0" stroke-width="1"/><circle cx="158" cy="721" r="6" fill="#5319e7" stroke="#f4e3b0" stroke-width="1"/><circle cx="173" cy="721" r="6" fill="#5319e7" stroke="#f4e3b0" stroke-width="1"/><circle cx="188" cy="721" r="6" fill="#5319e7" stroke="#f4e3b0" stroke-width="1"/><circle cx="203" cy="721" r="5.5" fill="none" stroke="#5319e7" stroke-width="2"/><circle cx="218" cy="721" r="5.5" fill="none" stroke="#5319e7" stroke-width="2"/><circle cx="233" cy="721" r="5.5" fill="none" stroke="#5319e7" stroke-width="2"/>
    <text x="150" y="746" font-size="16" text-anchor="middle" fill="#12304a">66/74 done · 1 dot ≈ 4</text>
  </g>
  <g>
    <ellipse cx="397" cy="617" rx="96" ry="54" fill="#000" opacity=".10"/>
    <ellipse cx="397" cy="610" rx="94" ry="52" fill="#f4e3b0" stroke="#b60205" stroke-width="3"/>
    <ellipse cx="397" cy="604" rx="66" ry="32" fill="#9bd68a" opacity=".85"/>
    <text x="397" y="624" font-size="46" text-anchor="middle">⚡</text>
    <text x="397" y="692" font-size="21" font-weight="700" text-anchor="middle" fill="#12304a">Perf Peak</text>
    <circle cx="315" cy="706" r="6" fill="#b60205" stroke="#f4e3b0" stroke-width="1"/><circle cx="330" cy="706" r="6" fill="#b60205" stroke="#f4e3b0" stroke-width="1"/><circle cx="345" cy="706" r="5.5" fill="none" stroke="#b60205" stroke-width="2"/><circle cx="360" cy="706" r="5.5" fill="none" stroke="#b60205" stroke-width="2"/><circle cx="375" cy="706" r="5.5" fill="none" stroke="#b60205" stroke-width="2"/><circle cx="390" cy="706" r="5.5" fill="none" stroke="#b60205" stroke-width="2"/>
    <text x="397" y="746" font-size="16" text-anchor="middle" fill="#12304a">2/6 done</text>
  </g>
  <g>
    <ellipse cx="644" cy="617" rx="96" ry="54" fill="#000" opacity=".10"/>
    <ellipse cx="644" cy="610" rx="94" ry="52" fill="#f4e3b0" stroke="#006b75" stroke-width="3"/>
    <ellipse cx="644" cy="604" rx="66" ry="32" fill="#9bd68a" opacity=".85"/>
    <text x="644" y="624" font-size="46" text-anchor="middle">🤖</text>
    <text x="644" y="692" font-size="21" font-weight="700" text-anchor="middle" fill="#12304a">Agent Isle</text>
    <circle cx="562" cy="706" r="6" fill="#006b75" stroke="#f4e3b0" stroke-width="1"/><circle cx="577" cy="706" r="5.5" fill="none" stroke="#006b75" stroke-width="2"/><circle cx="592" cy="706" r="5.5" fill="none" stroke="#006b75" stroke-width="2"/><circle cx="607" cy="706" r="5.5" fill="none" stroke="#006b75" stroke-width="2"/><circle cx="622" cy="706" r="5.5" fill="none" stroke="#006b75" stroke-width="2"/>
    <text x="644" y="746" font-size="16" text-anchor="middle" fill="#12304a">1/5 done</text>
  </g>
  <g>
    <ellipse cx="891" cy="617" rx="96" ry="54" fill="#000" opacity=".10"/>
    <ellipse cx="891" cy="610" rx="94" ry="52" fill="#f4e3b0" stroke="#e36209" stroke-width="3"/>
    <ellipse cx="891" cy="604" rx="66" ry="32" fill="#9bd68a" opacity=".85"/>
    <text x="891" y="624" font-size="46" text-anchor="middle">🌋</text>
    <text x="891" y="692" font-size="21" font-weight="700" text-anchor="middle" fill="#12304a">Engine Volcano</text>
    <circle cx="809" cy="706" r="6" fill="#e36209" stroke="#f4e3b0" stroke-width="1"/><circle cx="824" cy="706" r="6" fill="#e36209" stroke="#f4e3b0" stroke-width="1"/><circle cx="839" cy="706" r="6" fill="#e36209" stroke="#f4e3b0" stroke-width="1"/><circle cx="854" cy="706" r="6" fill="#e36209" stroke="#f4e3b0" stroke-width="1"/><circle cx="869" cy="706" r="6" fill="#e36209" stroke="#f4e3b0" stroke-width="1"/><circle cx="884" cy="706" r="6" fill="#e36209" stroke="#f4e3b0" stroke-width="1"/><circle cx="899" cy="706" r="6" fill="#e36209" stroke="#f4e3b0" stroke-width="1"/><circle cx="914" cy="706" r="6" fill="#e36209" stroke="#f4e3b0" stroke-width="1"/><circle cx="929" cy="706" r="6" fill="#e36209" stroke="#f4e3b0" stroke-width="1"/><circle cx="944" cy="706" r="5.5" fill="none" stroke="#e36209" stroke-width="2"/><circle cx="959" cy="706" r="5.5" fill="none" stroke="#e36209" stroke-width="2"/><circle cx="974" cy="706" r="5.5" fill="none" stroke="#e36209" stroke-width="2"/><circle cx="809" cy="721" r="5.5" fill="none" stroke="#e36209" stroke-width="2"/><circle cx="824" cy="721" r="5.5" fill="none" stroke="#e36209" stroke-width="2"/><circle cx="839" cy="721" r="5.5" fill="none" stroke="#e36209" stroke-width="2"/><circle cx="854" cy="721" r="5.5" fill="none" stroke="#e36209" stroke-width="2"/><circle cx="869" cy="721" r="5.5" fill="none" stroke="#e36209" stroke-width="2"/><circle cx="884" cy="721" r="5.5" fill="none" stroke="#e36209" stroke-width="2"/><circle cx="899" cy="721" r="5.5" fill="none" stroke="#e36209" stroke-width="2"/><circle cx="914" cy="721" r="5.5" fill="none" stroke="#e36209" stroke-width="2"/>
    <text x="891" y="746" font-size="16" text-anchor="middle" fill="#12304a">9/20 done</text>
  </g>
  <text x="520" y="816" font-size="22" font-weight="700" text-anchor="middle" fill="#12304a">Your rank ladder (Codewars style) · 158 not ranked yet</text>
  <line x1="150" y1="880" x2="890" y2="880" stroke="#12304a" stroke-width="2" stroke-dasharray="4 6"/>
  <g><circle cx="150" cy="880" r="27" fill="#fff" stroke="#12304a" stroke-width="2"/><text x="150" y="889" font-size="26" text-anchor="middle">🌱</text><text x="150" y="932" font-size="18" font-weight="700" text-anchor="middle" fill="#12304a">8 kyu</text><text x="150" y="954" font-size="15" text-anchor="middle" fill="#12304a">85 quests</text></g><g><circle cx="298" cy="880" r="27" fill="#fff" stroke="#12304a" stroke-width="2"/><text x="298" y="889" font-size="26" text-anchor="middle">🌿</text><text x="298" y="932" font-size="18" font-weight="700" text-anchor="middle" fill="#12304a">7 kyu</text><text x="298" y="954" font-size="15" text-anchor="middle" fill="#12304a">46 quests</text></g><g><circle cx="446" cy="880" r="27" fill="#fff" stroke="#12304a" stroke-width="2"/><text x="446" y="889" font-size="26" text-anchor="middle">🪵</text><text x="446" y="932" font-size="18" font-weight="700" text-anchor="middle" fill="#12304a">6 kyu</text><text x="446" y="954" font-size="15" text-anchor="middle" fill="#12304a">40 quests</text></g><g><circle cx="594" cy="880" r="27" fill="#fff" stroke="#12304a" stroke-width="2"/><text x="594" y="889" font-size="26" text-anchor="middle">⚓</text><text x="594" y="932" font-size="18" font-weight="700" text-anchor="middle" fill="#12304a">5 kyu</text><text x="594" y="954" font-size="15" text-anchor="middle" fill="#12304a">22 quests</text></g><g><circle cx="742" cy="880" r="27" fill="#fff" stroke="#12304a" stroke-width="2"/><text x="742" y="889" font-size="26" text-anchor="middle">🧭</text><text x="742" y="932" font-size="18" font-weight="700" text-anchor="middle" fill="#12304a">4 kyu</text><text x="742" y="954" font-size="15" text-anchor="middle" fill="#12304a">3 quests</text></g><g><circle cx="890" cy="880" r="27" fill="#fff" stroke="#12304a" stroke-width="2"/><text x="890" y="889" font-size="26" text-anchor="middle">🏔️</text><text x="890" y="932" font-size="18" font-weight="700" text-anchor="middle" fill="#12304a">1 dan</text><text x="890" y="954" font-size="15" text-anchor="middle" fill="#12304a">6 quests</text></g>
  <text x="520" y="982" font-size="15" text-anchor="middle" fill="#12304a">Refreshed daily from the issue labels</text>
</svg>
